<svg id="Layer_1" data-name="Layer 1" xmlns="http://www.w3.org/2000/svg" viewBox="0 0 353.01 352"><defs><style>.cls-1{fill:#292929;}</style></defs><title>code-pen</title><path class="cls-1" d="M352.94,175.92c0,16.83-.16,33.67.07,50.5.11,7.93-2.92,13.45-9.59,17.87Q265.49,295.94,187.83,348c-7.82,5.24-14.66,5.36-22.52.09q-77.86-52.22-156-104C2.79,239.77,0,234.29,0,226.58q.22-50.5,0-101c0-7.93,2.92-13.45,9.59-17.87Q87.52,56.06,165.18,4C173-1.25,179.84-1.37,187.7,3.9q77.86,52.22,156,104c6.52,4.33,9.4,9.8,9.3,17.51C352.8,142.25,352.94,159.09,352.94,175.92ZM162,78.88c0-9.83.08-19.65-.07-29.48,0-1.85-.93-3.68-1.43-5.52-1.65.61-3.49.93-4.91,1.88Q101.32,81.85,47.1,118.07c-5.34,3.56-5.36,4.58-.21,8,14.53,9.74,29.14,19.34,43.6,29.18,3.38,2.3,6.06,2.36,9.48,0q28.35-19.17,56.94-38c3.57-2.35,5.24-5.19,5.17-9.47C161.92,98.2,162,88.54,162,78.88ZM192.48,43c-.57,2.11-1.43,3.8-1.44,5.5-.09,20,0,40-.08,60a9.14,9.14,0,0,0,4.41,8.35q29.16,19.31,58.19,38.82c2.86,1.92,5.27,2.1,8.2.12,14.91-10.06,29.92-20,44.86-30,4.42-3,4.44-4.23,0-7.18Q251.81,81.94,196.9,45.4C195.81,44.68,194.59,44.14,192.48,43ZM162,273.5c0-10-.05-20,0-30a9.1,9.1,0,0,0-4.42-8.35q-29.16-19.31-58.19-38.82c-2.86-1.92-5.27-2.09-8.2-.11-14.91,10.06-29.92,20-44.86,30-4.41,3-4.43,4.23,0,7.18q54.84,36.64,109.75,73.17c4.5,3,5.81,2.3,5.87-3.12C162.11,293.49,162,283.5,162,273.5Zm29-.32c0,10-.07,20,.07,30,0,1.67,1,3.33,1.48,5,1.51-.54,3.2-.81,4.5-1.67q54.72-36.37,109.35-72.87c4.76-3.18,4.76-4.34.1-7.47-14.8-9.93-29.68-19.74-44.44-29.72-3.07-2.08-5.57-2-8.63,0q-28.8,19.4-57.77,38.54A9.47,9.47,0,0,0,191,243.7C191.06,253.53,191,263.36,191,273.18ZM230.6,176c-2.33-1.78-3.81-3-5.42-4.12-14.52-9.73-29.16-19.29-43.55-29.21-3.83-2.64-6.64-2.4-10.3.1-14.58,9.94-29.33,19.63-44,29.45-1.46,1-2.78,2.17-4.65,3.65a44.21,44.21,0,0,0,3.75,3.24c15.48,10.39,31,20.69,46.47,31.14,2.86,1.94,5.06,1.44,7.7-.35,14.9-10.06,29.89-20,44.83-30C226.91,178.93,228.29,177.78,230.6,176ZM29,175.69c0,6.83-.14,13.67,0,20.49.12,4.65,1.66,5.44,5.55,2.86,9.86-6.53,19.59-13.26,29.42-19.84,3.25-2.18,3.51-4.07.1-6.35-9.83-6.58-19.56-13.31-29.42-19.84-4.08-2.7-5.56-1.87-5.67,3.18C28.9,162.69,29,169.19,29,175.69ZM324,176c0-6.66.13-13.33,0-20-.12-4.8-1.59-5.65-5.42-3.12-10,6.62-19.88,13.43-29.83,20.13-3.13,2.1-3,4,0,6,9.82,6.6,19.56,13.32,29.41,19.86,4.2,2.79,5.68,2,5.81-2.93C324.11,189.31,324,182.64,324,176Z"/></svg>