<svg id="Layer_1" data-name="Layer 1" xmlns="http://www.w3.org/2000/svg" viewBox="0 0 100 99.94"><defs><style>.cls-1{isolation:isolate;}</style></defs><title>link</title><g id="Outcoming_Link" data-name="Outcoming Link"><g id="_2-interface_-_outcoming_link" data-name="2-interface - outcoming link" class="cls-1"><g id="_2-interface_-_outcoming_link-2" data-name="2-interface - outcoming link"><path d="M86.64,89.95a3.33,3.33,0,0,1-3.33,3.33H10a3.33,3.33,0,0,1-3.33-3.33V16.63A3.33,3.33,0,0,1,10,13.3H53.32V6.63H6.67A6.67,6.67,0,0,0,0,13.3v80a6.67,6.67,0,0,0,6.67,6.66h80a6.67,6.67,0,0,0,6.67-6.66V46.62H86.64ZM99.79,3.35V3.12A3,3,0,0,0,99,1.17c-.06-.07-.1-.16-.17-.23a3.11,3.11,0,0,0-.26-.18A3,3,0,0,0,96.63,0h-.23L62.93.21a3.25,3.25,0,0,0-3.13,3.35A3.24,3.24,0,0,0,63,6.88l25.5-.16L34.28,61.11a3.24,3.24,0,0,0,0,4.6,3.28,3.28,0,0,0,4.63,0L93.14,11.28l.16,25.34a3.36,3.36,0,0,0,6.7,0Z"/></g></g></g></svg>